<svg xmlns="http://www.w3.org/2000/svg" viewBox="0 0 2048 2048" width="2048" height="2048" role="img" aria-labelledby="title desc"><title id="title">ANCAR logo</title><desc id="desc">Vector version of the ANCAR logo symbol.</desc><rect width="2048" height="2048" fill="#000000"/><g fill="#FD0149'><path d="M 1080 369 L 209 1790 L 1041 1085 L 1044 1085 L 1020 1163 L 977 1266 L 927 1356 L 884 1414 L 1290 1071 L 1317 1044 L 1336 1018 L 1356 977 L 1368 927 L 1368 878 L 1356 827 L 1334 783 Z"/><path d="M 991 1523 L 1018 1505 L 1059 1488 L 1108 1477 L 1160 1472 L 1217 1472 L 1297 1479 L 1385 1494 L 1475 1516 L 1564 1544 L 1635 1571 L 1692 1596 L 1780 1642 L 1842 1682 L 1884 1715 L 1921 1751 L 1942 1777 L 1950 1790 L 1655 1308 L 1639 1288 L 1622 1271 L 1602 1255 L 1565 1233 L 1525 1218 L 1504 1213 L 1474 1209 L 1425 1210 L 1381 1219 L 1356 1228 L 1335 1238 L 1295 1265 Z"/></g></svg>