<svg width="1280" height="320" viewBox="0 0 1280 320" fill="none" xmlns="http://www.w3.org/2000/svg">
  <rect width="1280" height="320" rx="24" fill="#0B1020"/>
  <rect x="24" y="24" width="1232" height="272" rx="18" fill="url(#paint0_linear)" stroke="#27324A"/>
  <circle cx="1046" cy="84" r="96" fill="#11182E"/>
  <circle cx="1046" cy="84" r="64" fill="#171F38"/>
  <rect x="78" y="72" width="144" height="28" rx="14" fill="#141C32" stroke="#2A3550"/>
  <text x="96" y="91" fill="#A5B4FC" font-family="Arial, Helvetica, sans-serif" font-size="14" font-weight="700">AI WORKFLOWS</text>
  <rect x="236" y="72" width="88" height="28" rx="14" fill="#141C32" stroke="#2A3550"/>
  <text x="258" y="91" fill="#93C5FD" font-family="Arial, Helvetica, sans-serif" font-size="14" font-weight="700">MCP</text>
  <rect x="338" y="72" width="186" height="28" rx="14" fill="#141C32" stroke="#2A3550"/>
  <text x="356" y="91" fill="#C4B5FD" font-family="Arial, Helvetica, sans-serif" font-size="14" font-weight="700">DIGITAL INFRASTRUCTURE</text>
  <text x="76" y="154" fill="white" font-family="Arial, Helvetica, sans-serif" font-size="56" font-weight="800">Allan Odreman</text>
  <text x="76" y="200" fill="#D1D5DB" font-family="Arial, Helvetica, sans-serif" font-size="28" font-weight="500">Systems, automation and digital products for real-world use.</text>
  <text x="76" y="242" fill="#8FA3BF" font-family="Arial, Helvetica, sans-serif" font-size="18" font-weight="500">AI-enabled business systems, civic-tech tools, web platforms and operational infrastructure.</text>
  <rect x="76" y="252" width="248" height="1" fill="#27324A"/>
  <rect x="340" y="252" width="164" height="1" fill="#27324A"/>
  <g transform="translate(980 18) scale(0.058)" fill="#FD0149">
    <path d="M 1080 369 L 209 1790 L 1041 1085 L 1044 1085 L 1020 1163 L 977 1266 L 927 1356 L 884 1414 L 1290 1071 L 1317 1044 L 1336 1018 L 1356 977 L 1368 927 L 1368 878 L 1356 827 L 1334 783 Z"/>
    <path d="M 991 1523 L 1018 1505 L 1059 1488 L 1108 1477 L 1160 1472 L 1217 1472 L 1297 1479 L 1385 1494 L 1475 1516 L 1564 1544 L 1635 1571 L 1692 1596 L 1780 1642 L 1842 1682 L 1884 1715 L 1921 1751 L 1942 1777 L 1950 1790 L 1655 1308 L 1639 1288 L 1622 1271 L 1602 1255 L 1565 1233 L 1525 1218 L 1504 1213 L 1474 1209 L 1425 1210 L 1381 1219 L 1356 1228 L 1335 1238 L 1295 1265 Z"/>
  </g>
  <defs>
    <linearGradient id="paint0_linear" x1="24" y1="24" x2="1256" y2="296" gradientUnits="userSpaceOnUse">
      <stop stop-color="#0E162B"/>
      <stop offset="1" stop-color="#131C35"/>
    </linearGradient>
  </defs>
</svg>
