<svg width="1280" height="180" viewBox="0 0 1280 180" fill="none" xmlns="http://www.w3.org/2000/svg">
  <rect width="1280" height="180" rx="20" fill="#0B1020"/>
  <rect x="18" y="18" width="1244" height="144" rx="16" fill="#11182E" stroke="#27324A"/>

  <text x="36" y="48" fill="#A5B4FC" font-family="Arial, Helvetica, sans-serif" font-size="14" font-weight="700" letter-spacing="1.5">WORKING STACK</text>

  <defs>
    <clipPath id="marquee-clip">
      <rect x="34" y="62" width="1212" height="82" rx="10"/>
    </clipPath>
    <g id="pill-python">
      <rect width="180" height="44" rx="14" fill="#151E35" stroke="#2C3753"/>
      <rect x="12" y="10" width="24" height="24" rx="8" fill="#3776AB"/>
      <text x="24" y="27" text-anchor="middle" fill="white" font-family="Arial, Helvetica, sans-serif" font-size="11" font-weight="700">Py</text>
      <text x="48" y="28" fill="#E5E7EB" font-family="Arial, Helvetica, sans-serif" font-size="16" font-weight="700">Python</text>
    </g>
    <g id="pill-js">
      <rect width="196" height="44" rx="14" fill="#151E35" stroke="#2C3753"/>
      <rect x="12" y="10" width="24" height="24" rx="8" fill="#F7DF1E"/>
      <text x="24" y="27" text-anchor="middle" fill="#111827" font-family="Arial, Helvetica, sans-serif" font-size="11" font-weight="700">JS</text>
      <text x="48" y="28" fill="#E5E7EB" font-family="Arial, Helvetica, sans-serif" font-size="16" font-weight="700">JavaScript</text>
    </g>
    <g id="pill-ts">
      <rect width="196" height="44" rx="14" fill="#151E35" stroke="#2C3753"/>
      <rect x="12" y="10" width="24" height="24" rx="8" fill="#3178C6"/>
      <text x="24" y="27" text-anchor="middle" fill="white" font-family="Arial, Helvetica, sans-serif" font-size="10" font-weight="700">TS</text>
      <text x="48" y="28" fill="#E5E7EB" font-family="Arial, Helvetica, sans-serif" font-size="16" font-weight="700">TypeScript</text>
    </g>
    <g id="pill-node">
      <rect width="186" height="44" rx="14" fill="#151E35" stroke="#2C3753"/>
      <rect x="12" y="10" width="24" height="24" rx="8" fill="#5FA04E"/>
      <text x="24" y="27" text-anchor="middle" fill="white" font-family="Arial, Helvetica, sans-serif" font-size="10" font-weight="700">N</text>
      <text x="48" y="28" fill="#E5E7EB" font-family="Arial, Helvetica, sans-serif" font-size="16" font-weight="700">Node.js</text>
    </g>
    <g id="pill-docker">
      <rect width="184" height="44" rx="14" fill="#151E35" stroke="#2C3753"/>
      <rect x="12" y="10" width="24" height="24" rx="8" fill="#2496ED"/>
      <text x="24" y="27" text-anchor="middle" fill="white" font-family="Arial, Helvetica, sans-serif" font-size="10" font-weight="700">D</text>
      <text x="48" y="28" fill="#E5E7EB" font-family="Arial, Helvetica, sans-serif" font-size="16" font-weight="700">Docker</text>
    </g>
    <g id="pill-cf">
      <rect width="208" height="44" rx="14" fill="#151E35" stroke="#2C3753"/>
      <rect x="12" y="10" width="24" height="24" rx="8" fill="#F38020"/>
      <text x="24" y="27" text-anchor="middle" fill="white" font-family="Arial, Helvetica, sans-serif" font-size="10" font-weight="700">CF</text>
      <text x="48" y="28" fill="#E5E7EB" font-family="Arial, Helvetica, sans-serif" font-size="16" font-weight="700">Cloudflare</text>
    </g>
    <g id="pill-mcp">
      <rect width="204" height="44" rx="14" fill="#151E35" stroke="#2C3753"/>
      <rect x="12" y="10" width="24" height="24" rx="8" fill="#8B5CF6"/>
      <text x="24" y="27" text-anchor="middle" fill="white" font-family="Arial, Helvetica, sans-serif" font-size="10" font-weight="700">M</text>
      <text x="48" y="28" fill="#E5E7EB" font-family="Arial, Helvetica, sans-serif" font-size="16" font-weight="700">MCP + Agents</text>
    </g>
    <g id="pill-ghl">
      <rect width="224" height="44" rx="14" fill="#151E35" stroke="#2C3753"/>
      <g transform="translate(12 6) scale(0.9)">
        <path fill="#FFCC00" d="M8 0 0 8h4v24h8V8h4z"/>
        <path fill="#2D93FA" d="M18 8 10 16h4v16h8V16h4z"/>
        <path fill="#1ED84A" d="M28 0 20 8h4v24h8V8h4z"/>
      </g>
      <text x="48" y="28" fill="#E5E7EB" font-family="Arial, Helvetica, sans-serif" font-size="16" font-weight="700">GoHighLevel CRM</text>
    </g>
    <g id="pill-wa">
      <rect width="208" height="44" rx="14" fill="#151E35" stroke="#2C3753"/>
      <rect x="12" y="10" width="24" height="24" rx="8" fill="#25D366"/>
      <text x="24" y="27" text-anchor="middle" fill="white" font-family="Arial, Helvetica, sans-serif" font-size="10" font-weight="700">W</text>
      <text x="48" y="28" fill="#E5E7EB" font-family="Arial, Helvetica, sans-serif" font-size="16" font-weight="700">WhatsApp Ops</text>
    </g>
    <g id="pill-railway">
      <rect width="180" height="44" rx="14" fill="#151E35" stroke="#2C3753"/>
      <rect x="12" y="10" width="24" height="24" rx="8" fill="#0B0D0E"/>
      <text x="24" y="27" text-anchor="middle" fill="white" font-family="Arial, Helvetica, sans-serif" font-size="10" font-weight="700">R</text>
      <text x="48" y="28" fill="#E5E7EB" font-family="Arial, Helvetica, sans-serif" font-size="16" font-weight="700">Railway</text>
    </g>
    <g id="pill-api">
      <rect width="200" height="44" rx="14" fill="#151E35" stroke="#2C3753"/>
      <rect x="12" y="10" width="24" height="24" rx="8" fill="#009688"/>
      <text x="24" y="27" text-anchor="middle" fill="white" font-family="Arial, Helvetica, sans-serif" font-size="10" font-weight="700">API</text>
      <text x="48" y="28" fill="#E5E7EB" font-family="Arial, Helvetica, sans-serif" font-size="16" font-weight="700">FastAPI / REST</text>
    </g>
    <g id="pill-ops">
      <rect width="214" height="44" rx="14" fill="#151E35" stroke="#2C3753"/>
      <rect x="12" y="10" width="24" height="24" rx="8" fill="#F46800"/>
      <text x="24" y="27" text-anchor="middle" fill="white" font-family="Arial, Helvetica, sans-serif" font-size="10" font-weight="700">OP</text>
      <text x="48" y="28" fill="#E5E7EB" font-family="Arial, Helvetica, sans-serif" font-size="16" font-weight="700">Monitoring / Ops</text>
    </g>
  </defs>

  <g clip-path="url(#marquee-clip)">
    <g>
      <animateTransform attributeName="transform" type="translate" values="-1180 0; 0 0; -1180 0" keyTimes="0;0.5;1" dur="28s" repeatCount="indefinite"/>

      <use href="#pill-python" x="36" y="82"/>
      <use href="#pill-js" x="232" y="82"/>
      <use href="#pill-ts" x="442" y="82"/>
      <use href="#pill-node" x="652" y="82"/>
      <use href="#pill-docker" x="852" y="82"/>
      <use href="#pill-cf" x="1048" y="82"/>
      <use href="#pill-mcp" x="1274" y="82"/>
      <use href="#pill-ghl" x="1496" y="82"/>
      <use href="#pill-wa" x="1738" y="82"/>
      <use href="#pill-railway" x="1960" y="82"/>
      <use href="#pill-api" x="2154" y="82"/>
      <use href="#pill-ops" x="2368" y="82"/>

      <use href="#pill-python" x="2608" y="82"/>
      <use href="#pill-js" x="2804" y="82"/>
      <use href="#pill-ts" x="3014" y="82"/>
      <use href="#pill-node" x="3224" y="82"/>
      <use href="#pill-docker" x="3424" y="82"/>
      <use href="#pill-cf" x="3620" y="82"/>
      <use href="#pill-mcp" x="3846" y="82"/>
      <use href="#pill-ghl" x="4068" y="82"/>
      <use href="#pill-wa" x="4310" y="82"/>
      <use href="#pill-railway" x="4532" y="82"/>
      <use href="#pill-api" x="4726" y="82"/>
      <use href="#pill-ops" x="4940" y="82"/>
    </g>
  </g>
</svg>
