<svg width="1280" height="220" viewBox="0 0 1280 220" fill="none" xmlns="http://www.w3.org/2000/svg">
  <rect width="1280" height="220" rx="20" fill="#0B1020"/>
  <rect x="18" y="18" width="1244" height="184" rx="16" fill="#11182E" stroke="#27324A"/>

  <text x="36" y="50" fill="#A5B4FC" font-family="Arial, Helvetica, sans-serif" font-size="14" font-weight="700" letter-spacing="1.5">WORKING STACK</text>

  <g transform="translate(36 72)">
    <rect width="168" height="44" rx="14" fill="#151E35" stroke="#2C3753"/>
    <rect x="12" y="10" width="24" height="24" rx="8" fill="#3776AB"/>
    <text x="24" y="27" text-anchor="middle" fill="white" font-family="Arial, Helvetica, sans-serif" font-size="11" font-weight="700">Py</text>
    <text x="48" y="28" fill="#E5E7EB" font-family="Arial, Helvetica, sans-serif" font-size="16" font-weight="700">Python</text>
  </g>

  <g transform="translate(218 72)">
    <rect width="168" height="44" rx="14" fill="#151E35" stroke="#2C3753"/>
    <rect x="12" y="10" width="24" height="24" rx="8" fill="#F7DF1E"/>
    <text x="24" y="27" text-anchor="middle" fill="#111827" font-family="Arial, Helvetica, sans-serif" font-size="11" font-weight="700">JS</text>
    <text x="48" y="28" fill="#E5E7EB" font-family="Arial, Helvetica, sans-serif" font-size="16" font-weight="700">JavaScript</text>
  </g>

  <g transform="translate(400 72)">
    <rect width="168" height="44" rx="14" fill="#151E35" stroke="#2C3753"/>
    <rect x="12" y="10" width="24" height="24" rx="8" fill="#3178C6"/>
    <text x="24" y="27" text-anchor="middle" fill="white" font-family="Arial, Helvetica, sans-serif" font-size="10" font-weight="700">TS</text>
    <text x="48" y="28" fill="#E5E7EB" font-family="Arial, Helvetica, sans-serif" font-size="16" font-weight="700">TypeScript</text>
  </g>

  <g transform="translate(582 72)">
    <rect width="168" height="44" rx="14" fill="#151E35" stroke="#2C3753"/>
    <rect x="12" y="10" width="24" height="24" rx="8" fill="#5FA04E"/>
    <text x="24" y="27" text-anchor="middle" fill="white" font-family="Arial, Helvetica, sans-serif" font-size="10" font-weight="700">N</text>
    <text x="48" y="28" fill="#E5E7EB" font-family="Arial, Helvetica, sans-serif" font-size="16" font-weight="700">Node.js</text>
  </g>

  <g transform="translate(764 72)">
    <rect width="168" height="44" rx="14" fill="#151E35" stroke="#2C3753"/>
    <rect x="12" y="10" width="24" height="24" rx="8" fill="#2496ED"/>
    <text x="24" y="27" text-anchor="middle" fill="white" font-family="Arial, Helvetica, sans-serif" font-size="10" font-weight="700">D</text>
    <text x="48" y="28" fill="#E5E7EB" font-family="Arial, Helvetica, sans-serif" font-size="16" font-weight="700">Docker</text>
  </g>

  <g transform="translate(946 72)">
    <rect width="168" height="44" rx="14" fill="#151E35" stroke="#2C3753"/>
    <rect x="12" y="10" width="24" height="24" rx="8" fill="#F38020"/>
    <text x="24" y="27" text-anchor="middle" fill="white" font-family="Arial, Helvetica, sans-serif" font-size="10" font-weight="700">CF</text>
    <text x="48" y="28" fill="#E5E7EB" font-family="Arial, Helvetica, sans-serif" font-size="16" font-weight="700">Cloudflare</text>
  </g>

  <g transform="translate(36 130)">
    <rect width="192" height="44" rx="14" fill="#151E35" stroke="#2C3753"/>
    <rect x="12" y="10" width="24" height="24" rx="8" fill="#8B5CF6"/>
    <text x="24" y="27" text-anchor="middle" fill="white" font-family="Arial, Helvetica, sans-serif" font-size="10" font-weight="700">M</text>
    <text x="48" y="28" fill="#E5E7EB" font-family="Arial, Helvetica, sans-serif" font-size="16" font-weight="700">MCP + Agents</text>
  </g>

  <g transform="translate(242 130)">
    <rect width="212" height="44" rx="14" fill="#151E35" stroke="#2C3753"/>
    <g transform="translate(12 6) scale(0.9)">
      <path fill="#FFCC00" d="M8 0 0 8h4v24h8V8h4z"/>
      <path fill="#2D93FA" d="M18 8 10 16h4v16h8V16h4z"/>
      <path fill="#1ED84A" d="M28 0 20 8h4v24h8V8h4z"/>
    </g>
    <text x="48" y="28" fill="#E5E7EB" font-family="Arial, Helvetica, sans-serif" font-size="16" font-weight="700">GoHighLevel CRM</text>
  </g>

  <g transform="translate(468 130)">
    <rect width="190" height="44" rx="14" fill="#151E35" stroke="#2C3753"/>
    <rect x="12" y="10" width="24" height="24" rx="8" fill="#25D366"/>
    <text x="24" y="27" text-anchor="middle" fill="white" font-family="Arial, Helvetica, sans-serif" font-size="10" font-weight="700">W</text>
    <text x="48" y="28" fill="#E5E7EB" font-family="Arial, Helvetica, sans-serif" font-size="16" font-weight="700">WhatsApp Ops</text>
  </g>

  <g transform="translate(672 130)">
    <rect width="168" height="44" rx="14" fill="#151E35" stroke="#2C3753"/>
    <rect x="12" y="10" width="24" height="24" rx="8" fill="#0B0D0E"/>
    <text x="24" y="27" text-anchor="middle" fill="white" font-family="Arial, Helvetica, sans-serif" font-size="10" font-weight="700">R</text>
    <text x="48" y="28" fill="#E5E7EB" font-family="Arial, Helvetica, sans-serif" font-size="16" font-weight="700">Railway</text>
  </g>

  <g transform="translate(854 130)">
    <rect width="180" height="44" rx="14" fill="#151E35" stroke="#2C3753"/>
    <rect x="12" y="10" width="24" height="24" rx="8" fill="#009688"/>
    <text x="24" y="27" text-anchor="middle" fill="white" font-family="Arial, Helvetica, sans-serif" font-size="10" font-weight="700">API</text>
    <text x="48" y="28" fill="#E5E7EB" font-family="Arial, Helvetica, sans-serif" font-size="16" font-weight="700">FastAPI / REST</text>
  </g>

  <g transform="translate(1048 130)">
    <rect width="196" height="44" rx="14" fill="#151E35" stroke="#2C3753"/>
    <rect x="12" y="10" width="24" height="24" rx="8" fill="#F46800"/>
    <text x="24" y="27" text-anchor="middle" fill="white" font-family="Arial, Helvetica, sans-serif" font-size="10" font-weight="700">OP</text>
    <text x="48" y="28" fill="#E5E7EB" font-family="Arial, Helvetica, sans-serif" font-size="16" font-weight="700">Monitoring / Ops</text>
  </g>
</svg>
